<svg xmlns="http://www.w3.org/2000/svg" xmlns:xlink="http://www.w3.org/1999/xlink" width="207" height="196"
     viewBox="0 0 207 196">
    <defs>
        <path id="qgwca"
              d="M163.687 2035.923h-6.692v6.662h-4.27v-6.662h-6.695v-4.249h6.695v-6.662h4.27v6.662h6.692zm63.122 0h-6.693v6.662h-4.27v-6.662h-6.695v-4.249h6.695v-6.662h4.27v6.662h6.693zm63.12 0h-6.694v6.662h-4.27v-6.662h-6.694v-4.249h6.694v-6.662h4.27v6.662h6.693zm63.12 0h-6.692v6.662h-4.27v-6.662h-6.695v-4.249h6.695v-6.662h4.27v6.662h6.692zm-189.362 59.47h-6.692v6.662h-4.27v-6.662h-6.695v-4.25h6.695v-6.662h4.27v6.662h6.692zm63.122 0h-6.693v6.662h-4.27v-6.662h-6.695v-4.25h6.695v-6.662h4.27v6.662h6.693zm63.12 0h-6.694v6.662h-4.27v-6.662h-6.694v-4.25h6.694v-6.662h4.27v6.662h6.693zm63.12 0h-6.692v6.662h-4.27v-6.662h-6.695v-4.25h6.695v-6.662h4.27v6.662h6.692zm-189.362 59.471h-6.692v6.662h-4.27v-6.662h-6.695v-4.25h6.695v-6.662h4.27v6.662h6.692zm63.122 0h-6.693v6.662h-4.27v-6.662h-6.695v-4.25h6.695v-6.662h4.27v6.662h6.693zm63.12 0h-6.694v6.662h-4.27v-6.662h-6.694v-4.25h6.694v-6.662h4.27v6.662h6.693zm63.12 0h-6.692v6.662h-4.27v-6.662h-6.695v-4.25h6.695v-6.662h4.27v6.662h6.692zm-189.362 59.47h-6.692v6.66h-4.27v-6.66h-6.695v-4.25h6.695v-6.663h4.27v6.663h6.692zm63.122 0h-6.693v6.66h-4.27v-6.66h-6.695v-4.25h6.695v-6.663h4.27v6.663h6.693zm63.12 0h-6.694v6.66h-4.27v-6.66h-6.694v-4.25h6.694v-6.663h4.27v6.663h6.693zm63.12 0h-6.692v6.66h-4.27v-6.66h-6.695v-4.25h6.695v-6.663h4.27v6.663h6.692z"/>
    </defs>
    <g>
        <g transform="translate(-146 -2025)">
            <use fill="#ffea6e" xlink:href="#qgwca"/>
        </g>
    </g>
</svg>
